<svg id="Capa_1" enable-background="new 0 0 512 512" height="512" viewBox="0 0 512 512" width="512" xmlns="http://www.w3.org/2000/svg"><g><g><g><path d="m186.886.338h-9.391c-61.929 0-112.132 50.203-112.132 112.132v112.886h233.656v-112.885c0-61.929-50.204-112.133-112.133-112.133z" fill="#365e7d"/><path d="m207.604 2.267c-52.032 9.714-91.404 55.348-91.404 110.203v112.89h-50.837v-112.89c0-61.931 50.208-112.126 112.138-112.126h9.381c7.076 0 14.016.654 20.722 1.923z" fill="#2b4d66"/></g><path d="m288.368 332.803v57.136h-212.356v-57.136c0-27.095 12.413-51.28 31.878-67.182 14.94-12.216 34.047-19.551 54.855-19.551h38.892c20.808 0 39.915 7.335 54.855 19.563 19.463 15.89 31.876 40.075 31.876 67.17z" fill="#e28086"/><path d="m204.643 246.132c-19.637.653-37.634 7.864-51.847 19.489-19.464 15.902-31.878 40.087-31.878 67.182v57.135h-44.906v-57.135c0-27.095 12.413-51.28 31.878-67.182 14.94-12.216 34.047-19.551 54.855-19.551h38.892c1.01 0 2.008.013 3.006.062z" fill="#dd636e"/><path d="m243.682 256.93v33.431c0 19.686-15.976 35.662-35.674 35.662h-51.638c-19.698 0-35.674-15.976-35.674-35.662v-33.431c12.45-6.916 26.799-10.86 42.047-10.86h38.892c15.261 0 29.597 3.944 42.047 10.86z" fill="#ffddce"/><path d="m243.682 256.93v.357c-13.153 19.97-35.773 33.16-61.487 33.16s-48.346-13.19-61.499-33.172v-.345c12.45-6.916 26.799-10.86 42.047-10.86h38.892c15.261 0 29.597 3.944 42.047 10.86z" fill="#ffcbbe"/><path d="m255.79 110.988v73.254 8.013c0 40.654-32.95 73.604-73.604 73.604-40.642 0-73.592-32.95-73.592-73.604v-8.013-72.024s68.203 2.46 100.177-29.514c0-.001 15.577 28.284 47.019 28.284z" fill="#ffddce"/><path d="m196.127 264.54c-4.512.863-9.171 1.319-13.942 1.319-40.642 0-73.592-32.95-73.592-73.604v-80.027s11.797.419 27.871-1.368v81.395c.001 35.896 25.678 65.776 59.663 72.285z" fill="#ffcbbe"/><g fill="#2b4d66"><path d="m162.034 169.804c-4.267 0-7.726-3.459-7.726-7.726v-16.663c0-4.267 3.459-7.726 7.726-7.726s7.726 3.459 7.726 7.726v16.663c.001 4.267-3.459 7.726-7.726 7.726z"/><path d="m205.081 169.804c-4.267 0-7.726-3.459-7.726-7.726v-16.663c0-4.267 3.459-7.726 7.726-7.726s7.726 3.459 7.726 7.726v16.663c.001 4.267-3.458 7.726-7.726 7.726z"/></g></g><path d="m34.165 395.186h442.61v116.476h-442.61z" fill="#e7a561"/><path d="m34.165 395.186h442.61v31.751h-442.61z" fill="#e49542"/><path d="m34.165 395.186h27.406v116.476h-27.406z" fill="#e49542"/><path d="m492.534 409.11h-473.068c-10.751 0-19.466-8.715-19.466-19.466 0-10.751 8.715-19.466 19.466-19.466h473.068c10.751 0 19.466 8.715 19.466 19.466 0 10.751-8.715 19.466-19.466 19.466z" fill="#e7a561"/><path d="m64.84 409.104h-45.37c-10.755 0-19.47-8.715-19.47-19.46 0-5.378 2.184-10.24 5.707-13.763s8.386-5.707 13.763-5.707h45.37c-5.378 0-10.24 2.184-13.763 5.707s-5.697 8.386-5.697 13.763c0 10.745 8.715 19.46 19.46 19.46z" fill="#e49542"/><g><g><circle cx="412.016" cy="64.147" fill="#b3e59f" r="42.48"/><path d="m421.788 105.488c-3.132.742-6.408 1.133-9.766 1.133-23.468 0-42.485-19.017-42.485-42.474 0-23.468 19.017-42.485 42.485-42.485 3.358 0 6.634.391 9.766 1.133-18.76 4.399-32.719 21.242-32.719 41.352 0 20.099 13.959 36.942 32.719 41.341z" fill="#95d6a4"/></g><path d="m411.99 83.179c-2.316 0-4.523-1.041-5.995-2.854l-13.361-16.444c-2.691-3.312-2.188-8.178 1.124-10.869 3.312-2.69 8.179-2.188 10.869 1.124l6.427 7.91 33.375-55.332c2.205-3.653 6.953-4.83 10.607-2.626s4.829 6.953 2.626 10.607l-39.054 64.747c-1.3 2.155-3.567 3.542-6.077 3.717-.181.014-.361.02-.541.02z" fill="#e28086"/></g><g><g><circle cx="412.016" cy="182.33" fill="#b3e59f" r="42.48"/><path d="m421.788 223.671c-3.132.742-6.408 1.133-9.766 1.133-23.468 0-42.485-19.017-42.485-42.474 0-23.468 19.017-42.485 42.485-42.485 3.358 0 6.634.391 9.766 1.133-18.76 4.399-32.719 21.242-32.719 41.352 0 20.099 13.959 36.943 32.719 41.341z" fill="#95d6a4"/></g><path d="m411.99 201.362c-2.316 0-4.523-1.041-5.995-2.854l-13.361-16.444c-2.691-3.312-2.188-8.178 1.124-10.869 3.312-2.69 8.179-2.188 10.869 1.124l6.427 7.91 33.375-55.332c2.205-3.653 6.953-4.829 10.607-2.626 3.654 2.204 4.829 6.953 2.626 10.607l-39.054 64.747c-1.3 2.155-3.567 3.542-6.077 3.717-.181.014-.361.02-.541.02z" fill="#e28086"/></g><g><g><circle cx="412.016" cy="300.514" fill="#b3e59f" r="42.48"/><path d="m421.788 341.855c-3.132.742-6.408 1.133-9.766 1.133-23.468 0-42.485-19.017-42.485-42.474 0-23.468 19.017-42.485 42.485-42.485 3.358 0 6.634.391 9.766 1.133-18.76 4.399-32.719 21.242-32.719 41.352 0 20.098 13.959 36.942 32.719 41.341z" fill="#95d6a4"/></g><path d="m411.99 319.545c-2.316 0-4.523-1.041-5.995-2.854l-13.361-16.444c-2.691-3.312-2.188-8.178 1.124-10.869 3.312-2.69 8.179-2.188 10.869 1.124l6.427 7.91 33.375-55.332c2.205-3.653 6.953-4.829 10.607-2.626 3.654 2.204 4.829 6.953 2.626 10.607l-39.054 64.747c-1.3 2.155-3.567 3.542-6.077 3.717-.181.014-.361.02-.541.02z" fill="#e28086"/></g><path d="m182.191 221.837c-11.375 0-22.069-4.43-30.112-12.473-3.018-3.018-3.018-7.909 0-10.927 3.017-3.017 7.909-3.018 10.927 0 5.125 5.125 11.939 7.947 19.186 7.947s14.061-2.822 19.186-7.947c3.017-3.017 7.909-3.018 10.927 0 3.018 3.017 3.018 7.909 0 10.927-8.045 8.044-18.739 12.473-30.114 12.473z" fill="#e28086"/></g></svg>