<svg height="512" viewBox="0 0 64 64" width="512" xmlns="http://www.w3.org/2000/svg"><g id="Layer_29" data-name="Layer 29"><circle cx="32" cy="32" fill="#c1c8d1" r="30"/><path d="m40 39h-16a11 11 0 0 0 -11 11v5.21a30 30 0 0 0 38 0v-5.21a11 11 0 0 0 -11-11z" fill="#c7e2fb"/><path d="m40 39h-16a11 11 0 0 0 -11 11v5.21a30 30 0 0 0 38 0v-5.21a11 11 0 0 0 -11-11z" fill="#c7e2fb"/><path d="m24 39a11 11 0 0 0 -11 11v5.21a29.8 29.8 0 0 0 9.67 5.3c11.5-1.94 20.67-9.68 23.45-19.65a11 11 0 0 0 -6.12-1.86z" fill="#ebf7fe"/><path d="m32 45 5-6h4l-3 9z" fill="#c7e2fb"/><path d="m32 45-5-6h-4l3 9z" fill="#c7e2fb"/><path d="m28 31a4 4 0 0 0 4 4 4 4 0 0 0 4-4" fill="none" stroke="#000" stroke-linejoin="round" stroke-width="2"/><path d="m45 22v4a13 13 0 0 1 -13 13 13 13 0 0 1 -13-13v-4h8.17a10.3 10.3 0 0 0 8.83-5 10.3 10.3 0 0 0 8.83 5z" fill="#fddfb1"/><path d="m32 39a13 13 0 0 1 -5-1v1l5 6 5-6v-1a13 13 0 0 1 -5 1z" fill="#fddfb1"/><path d="m32 7a13 13 0 0 0 -13 13v2h8.17a10.3 10.3 0 0 0 8.83-5 10.3 10.3 0 0 0 8.83 5h.17v-2a13 13 0 0 0 -13-13z" fill="#c18e5c"/><path d="m45.5 22h-.5v4a12.9 12.9 0 0 1 -.36 3h.86a3.5 3.5 0 0 0 0-7z" fill="#fddfb1"/><path d="m19 26v-4h-.5a3.5 3.5 0 0 0 0 7h.86a12.9 12.9 0 0 1 -.36-3z" fill="#fddfb1"/><g fill="#95aabc"><path d="m18 58.53c.65.35 1.32.67 2 1v-8.53h-2z"/><path d="m44 59.5c.68-.3 1.35-.62 2-1v-7.5h-2z"/></g></g></svg>